<svg xmlns:xlink="http://www.w3.org/1999/xlink" xmlns="http://www.w3.org/2000/svg" width="114" height="11" viewBox="0 0 114 11" fill="none">
<path d="M5.74897 1.66755C6.84359 1.66755 7.84031 2.08688 8.54336 2.79876L9.73587 1.56028C8.70355 0.526596 7.34195 0 5.75787 0C2.57191 0 0 2.38919 0 5.5C0 8.61082 2.57191 11 5.75787 11C7.34195 11 8.70355 10.4734 9.73587 9.43972L8.54336 8.19149C7.84921 8.90337 6.84359 9.3227 5.74897 9.3227C3.53304 9.3227 1.85996 7.64539 1.85996 5.49025C1.86886 3.34486 3.53304 1.66755 5.74897 1.66755Z" fill="white"/>
<path d="M10.1625 5.5C10.1625 8.60106 12.7344 11 15.9203 11C19.1241 11 21.6782 8.61082 21.6782 5.5C21.6782 2.38919 19.1241 0 15.9203 0C12.7344 0 10.1625 2.38919 10.1625 5.5ZM19.8004 5.5C19.8004 7.65514 18.1363 9.33245 15.9114 9.33245C13.6955 9.33245 12.0224 7.65514 12.0224 5.5C12.0224 3.34486 13.6866 1.66755 15.9114 1.66755C18.1363 1.66755 19.8004 3.34486 19.8004 5.5Z" fill="white"/>
<path d="M23.1295 0V10.8732H24.9716V4.00798L32.6607 10.9902V0.117022H30.8274V6.98227L23.1295 0Z" fill="white"/>
<path d="M41.3024 1.84271V0.116648H34.7703V10.8728H36.6125V6.27001H40.279V4.5732H36.6125V1.84271H41.3024Z" fill="white"/>
<path d="M44.3722 0.116648H42.53V10.8728H44.3722V0.116648Z" fill="white"/>
<path d="M51.5802 1.66755C52.6926 1.66755 53.7961 2.08688 54.4991 2.79876L55.6916 1.56028C54.6593 0.526596 53.182 0 51.5802 0C48.3942 0 45.8223 2.38919 45.8223 5.5C45.8223 8.61082 48.3942 11 51.5802 11C53.1642 11 54.6682 10.4832 55.7183 9.625V4.58333H51.598L50.7881 6.28014H53.8762V8.76684C53.2443 9.14716 52.3989 9.3422 51.5802 9.3422C49.3642 9.3422 47.6912 7.66489 47.6912 5.50975C47.7001 3.34486 49.3642 1.66755 51.5802 1.66755Z" fill="white"/>
<path d="M57.1783 5.5C57.1783 8.60106 59.7502 11 62.9362 11C66.1399 11 68.694 8.61082 68.694 5.5C68.694 2.38919 66.1399 0 62.9362 0C59.7502 0 57.1783 2.38919 57.1783 5.5ZM66.8163 5.5C66.8163 7.65514 65.1521 9.33245 62.9273 9.33245C60.7113 9.33245 59.0383 7.65514 59.0383 5.5C59.0383 3.34486 60.7024 1.66755 62.9273 1.66755C65.1521 1.66755 66.8163 3.34486 66.8163 5.5Z" fill="white"/>
<path d="M81.2144 10.8732V0L75.688 5.63653L70.1526 0V10.8732H71.9859V4.27128L75.688 8.08422L79.3812 4.27128V10.8732H81.2144Z" fill="white"/>
<path d="M82.2301 10.8732H84.1968L85.3716 8.48404H90.0793L91.254 10.8732H93.2385L87.7388 0L82.2301 10.8732ZM86.1636 6.875L87.7299 3.69592L89.2872 6.875H86.1636Z" fill="white"/>
<path d="M96.8692 10.8728V1.84271H99.7882V0.116648H92.1259V1.84271H95.0271V10.8728H96.8692Z" fill="white"/>
<path d="M102.805 0.116648H100.962V10.8728H102.805V0.116648Z" fill="white"/>
<path d="M110.013 1.66755C111.108 1.66755 112.104 2.08688 112.807 2.79876L114 1.56028C112.968 0.526596 111.606 0 110.022 0C106.836 0 104.264 2.38919 104.264 5.5C104.264 8.61082 106.836 11 110.022 11C111.606 11 112.968 10.4734 114 9.43972L112.807 8.20124C112.113 8.91312 111.108 9.33245 110.013 9.33245C107.797 9.33245 106.124 7.65514 106.124 5.5C106.133 3.34486 107.797 1.66755 110.013 1.66755Z" fill="white"/>
</svg>