<svg xmlns:xlink="http://www.w3.org/1999/xlink" width="20" height="20" viewBox="0 0 20 20" fill="none" xmlns="http://www.w3.org/2000/svg">
<path fill-rule="evenodd" clip-rule="evenodd" d="M15.4866 2.5597L16.2926 0L11.0974 0.734844L4.30254 3.36803L0 9.5652L3.54618 18.1017L13.3044 20C13.3044 20 15.437 18.0404 16.429 17.1218L20 13.815L19.9876 6.8463L15.4494 2.8169L17.0242 7.18922L14.8295 14.7091L10.3438 15.5369L10.3152 15.5406L6.86919 10.6185L10.2914 2.89038L13.602 4.76424L14.9783 3.18432L13.5896 3.66198L12.7836 2.24127L15.0031 1.1635L15.4866 2.5597ZM10.3152 15.5406L10.3045 15.5419L13.3051 19.8898L11.6312 15.3705L10.3438 15.5369L10.3162 15.5419L10.3152 15.5406ZM11.8166 0.857656L13.7632 0.588209L12.7589 1.20058L11.8166 0.857656ZM19.8886 13.7532L15.0777 14.0839L14.9413 14.6963L19.8886 13.7532ZM16.8133 6.29515L17.6688 5.13166L17.0241 7.17697L16.8133 6.29515ZM11.1104 3.23326L11.1848 0.88176L10.3045 2.76786L11.1104 3.23326ZM6.83244 10.7534L3.64583 17.9915H3.65823L7.71279 12.027L6.83244 10.7534Z" fill="white"/>
</svg>
