<svg width="261" height="334" viewBox="0 0 261 334" fill="none" xmlns="http://www.w3.org/2000/svg">
<path d="M259.2 26.3998C239.8 20.6998 219.2 16.2998 198 13.3998C176.2 10.3998 153.6 8.7998 130.9 8.7998C108.2 8.7998 85.6 10.2998 63.8 13.3998C42.6 16.3998 22 20.6998 2.60004 26.3998L0.800049 26.8998V177.7C0.800049 199 7.60004 220.4 21.1 241.4C31.8 258.1 46.8 274.5 65.5 290.3C82.1 304.3 98.7 315.1 109.7 321.7C121.6 328.9 129.5 332.7 129.8 332.9L130.9 333.4L132 332.9C132.3 332.7 140.2 328.9 152.1 321.7C163.1 315.1 179.7 304.2 196.3 290.3C215 274.6 229.9 258.1 240.7 241.4C254.2 220.4 261 199 261 177.7V26.8998L259.2 26.3998ZM258.8 174.4C258.8 194.9 252.1 215.5 238.8 235.7C228.3 251.7 213.6 267.6 195.2 282.7C178.9 296.1 162.6 306.6 151.8 313C140.1 319.9 130.9 321.7 130.9 321.7C130.9 321.7 121.7 320 110 313C99.2 306.6 82.9001 296.2 66.6001 282.7C48.2001 267.5 33.5 251.7 23 235.7C9.70005 215.5 3.00005 194.9 3.00005 174.4V29.2998L4.80005 28.7998C23.9 23.2998 44.1 19.0998 65 16.2998C86.4 13.3998 108.6 11.8998 130.9 11.8998C153.2 11.8998 175.4 13.3998 196.8 16.2998C217.6 19.0998 237.9 23.3998 257 28.7998L258.8 29.2998V174.4V174.4Z" fill="#212121"/>
<path d="M252 34.5998C233.7 29.4998 214.2 25.5998 194.2 22.8998C173.6 20.1998 152.3 18.7998 130.8 18.7998C109.4 18.7998 88.1001 20.1998 67.4001 22.8998C47.4001 25.5998 27.9001 29.4998 9.60014 34.5998L7.90015 35.0998V170.5C7.90015 189.6 14.4002 208.8 27.1002 227.7C34.6002 238.8 44.3001 249.7 55.9001 260.4C51.2001 255.7 91.9001 295.2 130.8 295.1C171.5 295 210.5 255.5 205.6 260.4C217.3 249.7 226.9 238.8 234.4 227.7C247.1 208.9 253.6 189.6 253.6 170.5V35.0998L252 34.5998Z" fill="#184C7C"/>
<path opacity="0.5" d="M152.3 257.799L224.2 190.299V114.399L212.4 104.199L176.9 71.8992L193.4 117.799H193.5L169.3 200.799L119.2 209.699L81.9 155.799L119.1 69.5992L155.3 90.3992L168.4 75.1992L155.1 79.8992L145.9 63.2992L171.2 50.8992L176 65.1992L183.9 39.6992L128.6 47.1992L55.4 76.3992L9 143.899L47 236.699L152.3 257.799Z" fill="#1A334A"/>
<path d="M198.8 0.599609L190 28.4996L184.8 13.2996L160.8 24.9996L169.4 40.4996L184.3 35.2996L169.4 52.4996L133.7 31.9996L97 116.4L134.1 170.2L182.7 161.2L206.4 79.0996L189.4 31.3996L238.4 75.3996L238.5 151.6C238.5 151.6 212.9 175.7 200 187.8C189.3 197.9 166.3 219.2 166.3 219.2L61 198.5L23.2 105L69.6 37.2996L142.9 8.59961L198.8 0.599609Z" fill="#212121"/>
<path d="M61.5999 195.899L24.3999 105.299C24.3999 105.299 49.2999 69.0994 61.3999 51.3994C64.1999 47.2994 70.3999 38.2994 70.3999 38.2994L142 10.3994L61.5999 195.899Z" fill="white"/>
<path d="M165.2 217.599L62.3999 197.099L96.7999 117.899L165.2 217.599Z" fill="white"/>
<path d="M184.3 160.899L214.7 56.3994L237.5 75.8994V150.699L184.3 160.899Z" fill="white"/>
<path d="M166.7 217.599C156.2 202.199 145.9 186.899 135.3 171.499C168.8 165.099 202.2 158.799 236 152.399C212.8 174.199 189.8 195.899 166.7 217.599Z" fill="white"/>
<path d="M197.1 2.09961L190.1 24.8996L185.6 11.5996L159.2 24.4996L169 41.8996L180.8 37.8996C180.8 37.8996 172.9 46.7996 169.3 50.9996C157.6 44.2996 134.4 30.9996 134.4 30.9996L143.7 9.79961L197.1 2.09961ZM150.9 9.79961C150.9 9.89961 150.9 9.89961 150.9 9.99961C154 11.1996 157.2 12.2996 160.3 13.4996C160.6 13.5996 161.2 13.3996 161.5 13.1996C164.5 11.3996 167.5 9.59961 170.4 7.69961C170.6 7.59961 170.8 7.39961 171.3 6.99961C164.3 7.89961 157.6 8.89961 150.9 9.79961Z" fill="white"/>
<path d="M207.3 77.0994C202.4 63.2994 197.5 49.6994 192.5 35.9994C192.6 35.9994 192.6 35.8994 192.7 35.8994C193.5 36.5994 194.3 37.2994 195.1 37.9994C201.1 43.4994 207.1 48.9994 213.1 54.4994C213.4 54.7994 213.7 55.2994 213.6 55.6994C211.6 62.6994 209.5 69.6994 207.5 76.7994C207.5 76.6994 207.4 76.7994 207.3 77.0994Z" fill="white"/>
<path d="M150.6 9.9L171.6 7L160.8 13.6L150.6 9.9Z" fill="#212121"/>
<path d="M166.4 217.099L148.8 168.899C144.3 169.699 139.9 170.599 135.4 171.499C145.8 186.799 156.1 201.899 166.4 217.099Z" fill="#D1D1D1"/>
<path d="M184.4 160.7L184.3 160.9L237.1 150.8L186.2 154.4L184.4 160.7Z" fill="#D1D1D1"/>
<path d="M213.1 57.3994L204.5 69.2994C205.4 71.8994 206.4 74.4994 207.3 77.0994C207.3 76.9994 207.4 76.9994 207.4 76.8994L208.2 74.2994C209.8 68.6994 211.5 63.0994 213.1 57.3994Z" fill="#D1D1D1"/>
<path d="M143.6 9.69922L134.4 30.8992C134.4 30.8992 138 32.8992 143 35.7992L143.6 9.69922Z" fill="#D1D1D1"/>
<path d="M96.7999 117.899L62.3999 197.099H62.4999L106.4 131.899L96.7999 117.899Z" fill="#D1D1D1"/>
</svg>
