<svg width="135" height="52" viewBox="0 0 135 52" fill="none" xmlns="http://www.w3.org/2000/svg">
<path d="M8.55587 1.97075C9.80412 1.97075 10.9407 2.46631 11.7425 3.30762L13.1023 1.84397C11.9251 0.62234 10.3724 0 8.56602 0C4.9329 0 2.00003 2.82358 2.00003 6.5C2.00003 10.1764 4.9329 13 8.56602 13C10.3724 13 11.9251 12.3777 13.1023 11.156L11.7425 9.68085C10.9509 10.5222 9.80412 11.0177 8.55587 11.0177C6.02893 11.0177 4.12103 9.03546 4.12103 6.48847C4.13118 3.95301 6.02893 1.97075 8.55587 1.97075Z" fill="white"/>
<path d="M13.5888 6.5C13.5888 10.1649 16.5217 13 20.1548 13C23.8082 13 26.7208 10.1764 26.7208 6.5C26.7208 2.82358 23.8082 0 20.1548 0C16.5217 0 13.5888 2.82358 13.5888 6.5ZM24.5795 6.5C24.5795 9.04699 22.6817 11.0293 20.1446 11.0293C17.6177 11.0293 15.7098 9.04699 15.7098 6.5C15.7098 3.95301 17.6076 1.97075 20.1446 1.97075C22.6817 1.97075 24.5795 3.95301 24.5795 6.5Z" fill="white"/>
<path d="M28.3758 0V12.8502H30.4765V4.7367L39.2446 12.9885V0.138298H37.1541V8.25177L28.3758 0Z" fill="white"/>
<path d="M49.0992 2.17775V0.137856H41.6504V12.8497H43.7511V7.41001H47.9322V5.4047H43.7511V2.17775H49.0992Z" fill="white"/>
<path d="M52.5999 0.137856H50.4992V12.8497H52.5999V0.137856Z" fill="white"/>
<path d="M60.8195 1.97075C62.088 1.97075 63.3465 2.46631 64.1482 3.30762L65.508 1.84397C64.3308 0.62234 62.6462 0 60.8195 0C57.1864 0 54.2535 2.82358 54.2535 6.5C54.2535 10.1764 57.1864 13 60.8195 13C62.6259 13 64.341 12.3892 65.5385 11.375V5.41667H60.8398L59.9163 7.42199H63.4378V10.3608C62.7172 10.8103 61.7532 11.0408 60.8195 11.0408C58.2926 11.0408 56.3847 9.05851 56.3847 6.51152C56.3948 3.95301 58.2926 1.97075 60.8195 1.97075Z" fill="white"/>
<path d="M67.2034 6.5C67.2034 10.1649 70.1362 13 73.7693 13C77.4227 13 80.3353 10.1764 80.3353 6.5C80.3353 2.82358 77.4227 0 73.7693 0C70.1362 0 67.2034 2.82358 67.2034 6.5ZM78.194 6.5C78.194 9.04699 76.2963 11.0293 73.7592 11.0293C71.2322 11.0293 69.3244 9.04699 69.3244 6.5C69.3244 3.95301 71.2221 1.97075 73.7592 1.97075C76.2963 1.97075 78.194 3.95301 78.194 6.5Z" fill="white"/>
<path d="M94.613 12.8502V0L88.3109 6.66135L81.9986 0V12.8502H84.0892V5.04787L88.3109 9.55408L92.5224 5.04787V12.8502H94.613Z" fill="white"/>
<path d="M95.7712 12.8502H98.014L99.3535 10.0266H104.722L106.062 12.8502H108.325L102.053 0L95.7712 12.8502ZM100.257 8.125L102.043 4.36791L103.819 8.125H100.257Z" fill="white"/>
<path d="M112.465 12.8497V2.17775H115.794V0.137856H107.056V2.17775H110.364V12.8497H112.465Z" fill="white"/>
<path d="M119.233 0.137856H117.133V12.8497H119.233V0.137856Z" fill="white"/>
<path d="M127.454 1.97075C128.702 1.97075 129.838 2.46631 130.64 3.30762L132 1.84397C130.823 0.62234 129.27 0 127.464 0C123.831 0 120.898 2.82358 120.898 6.5C120.898 10.1764 123.831 13 127.464 13C129.27 13 130.823 12.3777 132 11.156L130.64 9.69238C129.849 10.5337 128.702 11.0293 127.454 11.0293C124.927 11.0293 123.019 9.04699 123.019 6.5C123.029 3.95301 124.927 1.97075 127.454 1.97075Z" fill="white"/>
<path d="M5.2789 51.128L10.5589 39.64H8.4949L5.2789 46.872L2.0629 39.64H-0.00109863L5.2789 51.128Z" fill="white"/>
<path d="M11.6837 41.48H13.3797C13.5717 41.288 13.6837 41 13.6837 40.68C13.6837 40.024 13.1877 39.512 12.5317 39.512C11.8757 39.512 11.3797 40.024 11.3797 40.68C11.3797 41 11.4917 41.288 11.6837 41.48ZM11.6357 51H13.3957V43H11.6357V51Z" fill="white"/>
<path d="M19.2357 51.128C20.7077 51.128 21.9077 50.488 22.6117 49.608L21.3477 48.52C20.8997 49.064 20.1797 49.496 19.2357 49.496C18.1157 49.496 17.0277 48.728 16.8997 47.368H23.0757C23.2037 44.68 21.6037 42.872 19.2037 42.872C16.8837 42.872 15.1397 44.664 15.1397 47C15.1397 49.368 16.9637 51.128 19.2357 51.128ZM19.0917 44.376C20.1477 44.376 21.0597 44.952 21.2197 46.088H16.9637C17.2357 44.84 18.2597 44.376 19.0917 44.376Z" fill="white"/>
<path d="M24.7607 51H26.5207V45.816C26.8567 44.984 27.5447 44.504 28.4247 44.504C29.6087 44.504 30.2487 45.352 30.2487 46.488V51H32.0087V46.28C32.0087 44.232 30.7447 42.872 28.7767 42.872C27.9287 42.872 27.0807 43.128 26.5207 43.752V43H24.7607V51Z" fill="white"/>
<path d="M36.4393 51.128C38.1513 51.128 39.3033 50.152 39.3033 48.744C39.3033 47.56 38.6153 46.808 37.1913 46.28L36.6473 46.072C35.7673 45.752 35.5273 45.48 35.5273 45.048C35.5273 44.6 35.9593 44.344 36.4553 44.344C37.0313 44.344 37.4473 44.648 37.7193 45.144L38.9033 44.248C38.3753 43.304 37.4793 42.872 36.4553 42.872C34.9673 42.872 33.8633 43.832 33.8633 45.128C33.8633 46.152 34.4393 47.048 35.8473 47.576L36.3913 47.784C37.2873 48.104 37.6233 48.36 37.6233 48.856C37.6233 49.336 37.1113 49.624 36.5033 49.624C35.7033 49.624 35.2073 49.224 34.8393 48.568L33.4633 49.496C34.1193 50.616 35.1753 51.128 36.4393 51.128Z" fill="white"/>
<path d="M48.4392 51.128C49.8312 51.128 50.9511 50.504 51.6712 49.64L50.4072 48.52C49.9592 49.064 49.3032 49.48 48.4392 49.48C47.0952 49.48 46.1032 48.408 46.1032 47C46.1032 45.592 47.0952 44.52 48.4392 44.52C49.3032 44.52 49.9592 44.936 50.4072 45.48L51.6712 44.36C50.9511 43.496 49.8312 42.872 48.4392 42.872C46.1032 42.872 44.3111 44.712 44.3111 47C44.3111 49.288 46.1032 51.128 48.4392 51.128Z" fill="white"/>
<path d="M53.1982 51H54.9582V45.64C55.3262 44.984 56.0302 44.648 56.7662 44.648C57.1022 44.648 57.4222 44.696 57.6942 44.808V42.984C57.4862 42.92 57.2462 42.904 57.0222 42.904C56.1742 42.904 55.4702 43.224 54.9582 43.848V43H53.1982V51Z" fill="white"/>
<path d="M63.1249 42.2L65.2369 39.64H63.1249L61.7649 42.2H63.1249ZM62.5169 51.128C63.9889 51.128 65.1889 50.488 65.8929 49.608L64.6289 48.52C64.1809 49.064 63.4609 49.496 62.5169 49.496C61.3969 49.496 60.3089 48.728 60.1809 47.368H66.3569C66.4849 44.68 64.8849 42.872 62.4849 42.872C60.1649 42.872 58.4209 44.664 58.4209 47C58.4209 49.368 60.2449 51.128 62.5169 51.128ZM62.3729 44.376C63.4289 44.376 64.3409 44.952 64.5009 46.088H60.2449C60.5169 44.84 61.5409 44.376 62.3729 44.376Z" fill="white"/>
<path d="M71.6419 51.128C73.1139 51.128 74.3139 50.488 75.0179 49.608L73.7539 48.52C73.3059 49.064 72.5859 49.496 71.6419 49.496C70.5219 49.496 69.4339 48.728 69.3059 47.368H75.4819C75.6099 44.68 74.0099 42.872 71.6099 42.872C69.2899 42.872 67.5459 44.664 67.5459 47C67.5459 49.368 69.3699 51.128 71.6419 51.128ZM71.4979 44.376C72.5539 44.376 73.4659 44.952 73.6259 46.088H69.3699C69.6419 44.84 70.6659 44.376 71.4979 44.376Z" fill="white"/>
<path d="M77.1669 51H78.9269V45.64C79.2949 44.984 79.9989 44.648 80.7349 44.648C81.0709 44.648 81.3909 44.696 81.6629 44.808V42.984C81.4549 42.92 81.2149 42.904 80.9909 42.904C80.1429 42.904 79.4389 43.224 78.9269 43.848V43H77.1669V51Z" fill="white"/>
<path d="M89.5503 51H91.1343V49.4H89.9663C89.1663 49.4 88.8783 49 88.8783 48.248V44.568H90.9583L91.3423 43H88.8783V40.6L87.1183 41.48V43H85.5503L85.9343 44.568H87.1183V48.632C87.1183 50.152 88.0303 51 89.5503 51Z" fill="white"/>
<path d="M96.2368 51.128C98.6048 51.128 100.397 49.288 100.397 47C100.397 44.712 98.6048 42.872 96.2368 42.872C93.8688 42.872 92.0768 44.712 92.0768 47C92.0768 49.288 93.8688 51.128 96.2368 51.128ZM96.2368 49.48C94.8448 49.48 93.8688 48.408 93.8688 47C93.8688 45.592 94.8448 44.52 96.2368 44.52C97.6288 44.52 98.5888 45.592 98.5888 47C98.5888 48.408 97.6288 49.48 96.2368 49.48Z" fill="white"/>
<path d="M102.12 51H103.88V45.816C104.216 44.984 104.904 44.504 105.784 44.504C106.968 44.504 107.608 45.352 107.608 46.488V51H109.368V46.28C109.368 44.232 108.104 42.872 106.136 42.872C105.288 42.872 104.44 43.128 103.88 43.752V43H102.12V51Z" fill="white"/>
<path d="M115.642 51H117.498V46.872H119.05C121.37 46.872 122.97 45.368 122.97 43.256C122.97 41.112 121.37 39.64 119.05 39.64H115.642V51ZM117.498 45.144V41.368H119.018C120.346 41.368 121.114 42.136 121.114 43.256C121.114 44.392 120.346 45.144 119.018 45.144H117.498Z" fill="white"/>
<path d="M129.949 51.128C131.917 51.128 133.629 50.152 134.557 48.856L133.197 47.688C132.509 48.68 131.341 49.336 129.949 49.336C127.693 49.336 126.029 47.576 126.029 45.32C126.029 43.064 127.693 41.304 129.949 41.304C131.341 41.304 132.509 41.96 133.197 42.952L134.557 41.784C133.629 40.488 131.917 39.512 129.949 39.512C126.717 39.512 124.141 42.056 124.141 45.32C124.141 48.584 126.717 51.128 129.949 51.128Z" fill="white"/>
</svg>
