<svg width="40" height="40" viewBox="0 0 40 40" fill="none" xmlns="http://www.w3.org/2000/svg">
<rect width="40" height="40" rx="10" fill="#55ACEE"/>
<path d="M14.8623 29.9999C24.2967 29.9999 29.456 22.306 29.456 15.6344C29.456 15.4159 29.4514 15.1982 29.4415 14.9818C30.4429 14.2691 31.3132 13.3797 32 12.3673C31.081 12.7696 30.0918 13.04 29.0545 13.1623C30.1134 12.537 30.9264 11.5483 31.3099 10.3696C30.3189 10.948 29.2213 11.3681 28.053 11.5951C27.117 10.6137 25.7843 10 24.3088 10C21.4764 10 19.1793 12.261 19.1793 15.0482C19.1793 15.4446 19.2244 15.8299 19.3123 16.1995C15.0494 15.9883 11.2692 13.9794 8.73968 10.9243C8.29937 11.6703 8.04528 12.5372 8.04528 13.4621C8.04528 15.2136 8.95082 16.7602 10.3277 17.6647C9.48623 17.6393 8.69581 17.4119 8.00476 17.0334C8.004 17.0546 8.004 17.0752 8.004 17.0978C8.004 19.543 9.77197 21.5846 12.1192 22.0473C11.6881 22.1627 11.2345 22.2248 10.7666 22.2248C10.4367 22.2248 10.115 22.1929 9.80255 22.1338C10.4555 24.1399 12.3492 25.5997 14.5941 25.6406C12.8385 26.9951 10.6271 27.8019 8.22354 27.8019C7.81014 27.8019 7.40148 27.7785 7 27.7319C9.27004 29.1642 11.9656 30 14.8624 30" fill="white"/>
</svg>
