<svg width="40" height="40" viewBox="0 0 40 40" fill="none" xmlns="http://www.w3.org/2000/svg">
<rect width="40" height="40" rx="10" fill="#3B5998"/>
<path d="M25.5105 8.00479L22.3923 8C18.8893 8 16.6254 10.2217 16.6254 13.6603V16.2701H13.4903C13.2194 16.2701 13 16.4802 13 16.7393V20.5206C13 20.7798 13.2196 20.9896 13.4903 20.9896H16.6254V30.531C16.6254 30.7902 16.8448 31 17.1157 31H21.2061C21.4771 31 21.6964 30.7899 21.6964 30.531V20.9896H25.3621C25.633 20.9896 25.8524 20.7798 25.8524 20.5206L25.8539 16.7393C25.8539 16.6149 25.8021 16.4958 25.7103 16.4077C25.6185 16.3197 25.4934 16.2701 25.3634 16.2701H21.6964V14.0578C21.6964 12.9944 21.9613 12.4546 23.4095 12.4546L25.51 12.4539C25.7806 12.4539 26 12.2438 26 11.9849V8.47377C26 8.21511 25.7809 8.00526 25.5105 8.00479Z" fill="white"/>
</svg>
